{"title":"Duel 1971 BRRIP XviD AC3-FWOLF","uid":11285253,"size":1411838881,"categoryP":"video","categoryS":"movies","magnet":"?xt=urn:btih:a8a56785cb1294ecb665a389f52ee40ebca89dfa&amp;dn=Duel+1971+BRRIP+XviD+AC3-FWOLF&amp;tr=udp%3A%2F%2Ftracker.openbittorrent.com%3A80&amp;tr=udp%3A%2F%2Fopen.demonii.com%3A1337&amp;tr=udp%3A%2F%2Ftracker.coppersurfer.tk%3A6969&amp;tr=udp%3A%2F%2Fexodus.desync.com%3A6969","seeders":0,"leechers":1,"uploader":"TvTeam","files":8,"time":1414268848,"description":" &lt;a href=&quot;http://www.torrenting.com&quot; rel=&quot;nofollow&quot; target=&quot;_NEW&quot;&gt;http://www.torrenting.com&lt;/a&gt;\n\nSign up is OPEN - for time being. Come and have fun.\n\n\n....Duel 1971 BRRIP XviD AC3-FWOLF\n\nimdb.... &lt;a href=&quot;\nhttp://www.imdb.com/title/tt0067023/&quot; rel=&quot;nofollow&quot; target=&quot;_NEW&quot;&gt;\nhttp://www.imdb.com/title/tt0067023/&lt;/a&gt;\n\n\nA business commuter is pursued and terrorized by\na malevolent driver of a massive tractor-trailer.\n\n\nDirector: Steven Spielberg\n\nWriters:  Richard Matheson (screenplay), Richard Matheson   \n\nStars:    Dennis Weaver, Jacqueline Scott, Eddie Firestone\n\n\nFormat                                   : AVI\nFormat/Info                              : Audio Video Interleave\nFile size                                : 1.30 GiB\nDuration                                 : 1h 29mn\nOverall bit rate                         : 2 083 Kbps\n\nVideo\nID                                       : 0\nFormat                                   : MPEG-4 Visual\nFormat profile                           : Advanced Simple@L5\nFormat settings, BVOP                    : 2\nFormat settings, QPel                    : Yes\nFormat settings, GMC                     : No warppoints\nFormat settings, Matrix                  : Default (H.263)\nCodec ID                                 : XVID\nCodec ID/Hint                            : XviD\nDuration                                 : 1h 29mn\nBit rate                                 : 1 628 Kbps\nWidth                                    : 720 pixels\nHeight                                   : 384 pixels\nDisplay aspect ratio                     : 1.85:1\nFrame rate                               : 23.976 fps\nColor space                              : YUV\nChroma subsampling                       : 4:2:0\nBit depth                                : 8 bits\nScan type                                : Progressive\nCompression mode                         : Lossy\nBits/(Pixel*Frame)                       : 0.246\nStream size                              : 1.01 GiB (78%)\nWriting library                          : XviD 1.2.1 (UTC 2008-12-04)\n\nAudio\nID                                       : 1\nFormat                                   : AC-3\nFormat/Info                              : Audio Coding 3\nMode extension                           : CM (complete main)\nFormat settings, Endianness              : Big\nCodec ID                                 : 2000\nDuration                                 : 1h 29mn\nBit rate mode                            : Constant\nBit rate                                 : 448 Kbps\nChannel(s)                               : 6 channels\nChannel positions                        : Front: L C R, Side: L R, LFE\nSampling rate                            : 48.0 KHz\nBit depth                                : 16 bits\nCompression mode                         : Lossy\nStream size                              : 286 MiB (22%)\nAlignment                                : Aligned on interleaves\nInterleave, duration                     : 64 ms (1.53 video frames)\nInterleave, preload duration             : 192 ms\nTitle                                    : English\n\n\n\n\n\nEncoded....................FWOLF              \n\nSource.....................720p BluRay X264-AMIABLE 4.43 GB) (Thanks!)\n\nSample.....................Yes\n\nSubs.......................(srt) English,Greek\n\n\n\n[img]http://s29.postimg.org/5djs90rpj/image.png[/img]\n\n\n\n\n[img]http://s27.postimg.org/cxfy3z6sj/image.png[/img]\n\n\n\n\nGreetz To: PsiX | Blacksheep | CFR | tomcat-12...\n.....and all P2P Encoders and Groups","torrent":{"xt":"urn:btih:a8a56785cb1294ecb665a389f52ee40ebca89dfa","amp;dn":"Duel+1971+BRRIP+XviD+AC3-FWOLF","amp;tr":["udp%3A%2F%2Ftracker.openbittorrent.com%3A80","udp%3A%2F%2Fopen.demonii.com%3A1337","udp%3A%2F%2Ftracker.coppersurfer.tk%3A6969","udp%3A%2F%2Fexodus.desync.com%3A6969"],"infoHash":"a8a56785cb1294ecb665a389f52ee40ebca89dfa","infoHashBuffer":{"type":"Buffer","data":[168,165,103,133,203,18,148,236,182,101,163,137,245,46,228,14,188,168,157,250]},"announce":[],"urlList":[]}}